<?xml version="1.0" encoding="UTF-8" standalone="no"?>
<!-- Created with Digital by H.Neemann -->
<!-- created: Sun May 01 10:18:33 CEST 2022 -->

<svg
   xmlns:svg="http://www.w3.org/2000/svg"
   xmlns="http://www.w3.org/2000/svg"
   width="85.95mm"
   height="21.6mm"
   viewBox="29 3 573 144">
<g stroke-linecap="square">
<text text-anchor="end" x="138.0" y="31.0" fill="#000000" style="font-size:24px">D</text>
<line x1="140.0" y1="5.0" x2="600.0" y2="5.0" stroke="#000000" stroke-linecap="square" stroke-width="1.0" stroke-dasharray="4.0,4.0" />
<text text-anchor="end" x="138.0" y="66.0" fill="#000000" style="font-size:24px">CLK</text>
<line x1="140.0" y1="40.0" x2="600.0" y2="40.0" stroke="#000000" stroke-linecap="square" stroke-width="1.0" stroke-dasharray="4.0,4.0" />
<text text-anchor="end" x="138.0" y="101.0" fill="#000000" style="font-size:24px">Q<tspan style="font-size:80%;baseline-shift:sub;">Latch</tspan></text>
<line x1="140.0" y1="75.0" x2="600.0" y2="75.0" stroke="#000000" stroke-linecap="square" stroke-width="1.0" stroke-dasharray="4.0,4.0" />
<text text-anchor="end" x="138.0" y="136.0" fill="#000000" style="font-size:24px">Q<tspan style="font-size:80%;baseline-shift:sub;">FlipFlop</tspan></text>
<line x1="140.0" y1="110.0" x2="600.0" y2="110.0" stroke="#000000" stroke-linecap="square" stroke-width="1.0" stroke-dasharray="4.0,4.0" />
<line x1="140.0" y1="145.0" x2="600.0" y2="145.0" stroke="#000000" stroke-linecap="square" stroke-width="1.0" stroke-dasharray="4.0,4.0" />
<line x1="140.0" y1="5.0" x2="140.0" y2="145.0" stroke="#000000" stroke-linecap="square" stroke-width="1.0" stroke-dasharray="4.0,4.0" />
<line x1="140.0" y1="35.0" x2="165.0" y2="35.0" stroke="#000000" stroke-linecap="square" stroke-width="4.0" />
<line x1="140.0" y1="45.0" x2="165.0" y2="45.0" stroke="#000000" stroke-linecap="square" stroke-width="4.0" />
<line x1="140.0" y1="105.0" x2="165.0" y2="105.0" stroke="#00ff00" stroke-linecap="square" stroke-width="4.0" />
<line x1="140.0" y1="140.0" x2="165.0" y2="140.0" stroke="#00ff00" stroke-linecap="square" stroke-width="4.0" />
<line x1="165.0" y1="5.0" x2="165.0" y2="145.0" stroke="#000000" stroke-linecap="square" stroke-width="1.0" stroke-dasharray="4.0,4.0" />
<line x1="165.0" y1="10.0" x2="190.0" y2="10.0" stroke="#000000" stroke-linecap="square" stroke-width="4.0" />
<line x1="165.0" y1="35.0" x2="165.0" y2="10.0" stroke="#000000" stroke-linecap="square" stroke-width="4.0" />
<line x1="165.0" y1="45.0" x2="190.0" y2="45.0" stroke="#000000" stroke-linecap="square" stroke-width="4.0" />
<line x1="165.0" y1="80.0" x2="190.0" y2="80.0" stroke="#00ff00" stroke-linecap="square" stroke-width="4.0" />
<line x1="165.0" y1="105.0" x2="165.0" y2="80.0" stroke="#00ff00" stroke-linecap="square" stroke-width="4.0" />
<line x1="165.0" y1="140.0" x2="190.0" y2="140.0" stroke="#00ff00" stroke-linecap="square" stroke-width="4.0" />
<line x1="190.0" y1="5.0" x2="190.0" y2="145.0" stroke="#000000" stroke-linecap="square" stroke-width="1.0" stroke-dasharray="4.0,4.0" />
<line x1="190.0" y1="10.0" x2="215.0" y2="10.0" stroke="#000000" stroke-linecap="square" stroke-width="4.0" />
<line x1="190.0" y1="70.0" x2="215.0" y2="70.0" stroke="#000000" stroke-linecap="square" stroke-width="4.0" />
<line x1="190.0" y1="45.0" x2="190.0" y2="70.0" stroke="#000000" stroke-linecap="square" stroke-width="4.0" />
<line x1="190.0" y1="80.0" x2="215.0" y2="80.0" stroke="#00ff00" stroke-linecap="square" stroke-width="4.0" />
<line x1="190.0" y1="140.0" x2="215.0" y2="140.0" stroke="#00ff00" stroke-linecap="square" stroke-width="4.0" />
<line x1="215.0" y1="5.0" x2="215.0" y2="145.0" stroke="#000000" stroke-linecap="square" stroke-width="1.0" stroke-dasharray="4.0,4.0" />
<line x1="215.0" y1="10.0" x2="240.0" y2="10.0" stroke="#000000" stroke-linecap="square" stroke-width="4.0" />
<line x1="215.0" y1="45.0" x2="240.0" y2="45.0" stroke="#000000" stroke-linecap="square" stroke-width="4.0" />
<line x1="215.0" y1="70.0" x2="215.0" y2="45.0" stroke="#000000" stroke-linecap="square" stroke-width="4.0" />
<line x1="215.0" y1="80.0" x2="240.0" y2="80.0" stroke="#00ff00" stroke-linecap="square" stroke-width="4.0" />
<line x1="215.0" y1="115.0" x2="240.0" y2="115.0" stroke="#00ff00" stroke-linecap="square" stroke-width="4.0" />
<line x1="215.0" y1="140.0" x2="215.0" y2="115.0" stroke="#00ff00" stroke-linecap="square" stroke-width="4.0" />
<line x1="240.0" y1="5.0" x2="240.0" y2="145.0" stroke="#000000" stroke-linecap="square" stroke-width="1.0" stroke-dasharray="4.0,4.0" />
<line x1="240.0" y1="35.0" x2="265.0" y2="35.0" stroke="#000000" stroke-linecap="square" stroke-width="4.0" />
<line x1="240.0" y1="10.0" x2="240.0" y2="35.0" stroke="#000000" stroke-linecap="square" stroke-width="4.0" />
<line x1="240.0" y1="45.0" x2="265.0" y2="45.0" stroke="#000000" stroke-linecap="square" stroke-width="4.0" />
<line x1="240.0" y1="105.0" x2="265.0" y2="105.0" stroke="#00ff00" stroke-linecap="square" stroke-width="4.0" />
<line x1="240.0" y1="80.0" x2="240.0" y2="105.0" stroke="#00ff00" stroke-linecap="square" stroke-width="4.0" />
<line x1="240.0" y1="115.0" x2="265.0" y2="115.0" stroke="#00ff00" stroke-linecap="square" stroke-width="4.0" />
<line x1="265.0" y1="5.0" x2="265.0" y2="145.0" stroke="#000000" stroke-linecap="square" stroke-width="1.0" stroke-dasharray="4.0,4.0" />
<line x1="265.0" y1="10.0" x2="290.0" y2="10.0" stroke="#000000" stroke-linecap="square" stroke-width="4.0" />
<line x1="265.0" y1="35.0" x2="265.0" y2="10.0" stroke="#000000" stroke-linecap="square" stroke-width="4.0" />
<line x1="265.0" y1="45.0" x2="290.0" y2="45.0" stroke="#000000" stroke-linecap="square" stroke-width="4.0" />
<line x1="265.0" y1="80.0" x2="290.0" y2="80.0" stroke="#00ff00" stroke-linecap="square" stroke-width="4.0" />
<line x1="265.0" y1="105.0" x2="265.0" y2="80.0" stroke="#00ff00" stroke-linecap="square" stroke-width="4.0" />
<line x1="265.0" y1="115.0" x2="290.0" y2="115.0" stroke="#00ff00" stroke-linecap="square" stroke-width="4.0" />
<line x1="290.0" y1="5.0" x2="290.0" y2="145.0" stroke="#000000" stroke-linecap="square" stroke-width="1.0" stroke-dasharray="4.0,4.0" />
<line x1="290.0" y1="10.0" x2="315.0" y2="10.0" stroke="#000000" stroke-linecap="square" stroke-width="4.0" />
<line x1="290.0" y1="70.0" x2="315.0" y2="70.0" stroke="#000000" stroke-linecap="square" stroke-width="4.0" />
<line x1="290.0" y1="45.0" x2="290.0" y2="70.0" stroke="#000000" stroke-linecap="square" stroke-width="4.0" />
<line x1="290.0" y1="80.0" x2="315.0" y2="80.0" stroke="#00ff00" stroke-linecap="square" stroke-width="4.0" />
<line x1="290.0" y1="115.0" x2="315.0" y2="115.0" stroke="#00ff00" stroke-linecap="square" stroke-width="4.0" />
<line x1="315.0" y1="5.0" x2="315.0" y2="145.0" stroke="#000000" stroke-linecap="square" stroke-width="1.0" stroke-dasharray="4.0,4.0" />
<line x1="315.0" y1="35.0" x2="340.0" y2="35.0" stroke="#000000" stroke-linecap="square" stroke-width="4.0" />
<line x1="315.0" y1="10.0" x2="315.0" y2="35.0" stroke="#000000" stroke-linecap="square" stroke-width="4.0" />
<line x1="315.0" y1="70.0" x2="340.0" y2="70.0" stroke="#000000" stroke-linecap="square" stroke-width="4.0" />
<line x1="315.0" y1="80.0" x2="340.0" y2="80.0" stroke="#00ff00" stroke-linecap="square" stroke-width="4.0" />
<line x1="315.0" y1="115.0" x2="340.0" y2="115.0" stroke="#00ff00" stroke-linecap="square" stroke-width="4.0" />
<line x1="340.0" y1="5.0" x2="340.0" y2="145.0" stroke="#000000" stroke-linecap="square" stroke-width="1.0" stroke-dasharray="4.0,4.0" />
<line x1="340.0" y1="10.0" x2="365.0" y2="10.0" stroke="#000000" stroke-linecap="square" stroke-width="4.0" />
<line x1="340.0" y1="35.0" x2="340.0" y2="10.0" stroke="#000000" stroke-linecap="square" stroke-width="4.0" />
<line x1="340.0" y1="70.0" x2="365.0" y2="70.0" stroke="#000000" stroke-linecap="square" stroke-width="4.0" />
<line x1="340.0" y1="80.0" x2="365.0" y2="80.0" stroke="#00ff00" stroke-linecap="square" stroke-width="4.0" />
<line x1="340.0" y1="115.0" x2="365.0" y2="115.0" stroke="#00ff00" stroke-linecap="square" stroke-width="4.0" />
<line x1="365.0" y1="5.0" x2="365.0" y2="145.0" stroke="#000000" stroke-linecap="square" stroke-width="1.0" stroke-dasharray="4.0,4.0" />
<line x1="365.0" y1="10.0" x2="390.0" y2="10.0" stroke="#000000" stroke-linecap="square" stroke-width="4.0" />
<line x1="365.0" y1="45.0" x2="390.0" y2="45.0" stroke="#000000" stroke-linecap="square" stroke-width="4.0" />
<line x1="365.0" y1="70.0" x2="365.0" y2="45.0" stroke="#000000" stroke-linecap="square" stroke-width="4.0" />
<line x1="365.0" y1="80.0" x2="390.0" y2="80.0" stroke="#00ff00" stroke-linecap="square" stroke-width="4.0" />
<line x1="365.0" y1="115.0" x2="390.0" y2="115.0" stroke="#00ff00" stroke-linecap="square" stroke-width="4.0" />
<line x1="600.0" y1="5.0" x2="600.0" y2="145.0" stroke="#000000" stroke-linecap="square" stroke-width="1.0" stroke-dasharray="4.0,4.0" />
</g>
</svg>